<svg xmlns="http://www.w3.org/2000/svg" width="1200" height="630" viewBox="0 0 1200 630" font-family="'SF Pro Rounded','SF Pro Display',-apple-system,BlinkMacSystemFont,'Helvetica Neue',Arial,sans-serif" role="img"><title>Answers math in under half a second: 0.46s Superbot Fast, median response</title><rect width="1200" height="630" fill="#000000"/><text x="64" y="84" font-size="18" font-weight="400" fill="#9a9a9a" text-anchor="start" >Speed: math</text><text x="64" y="142" font-size="40" font-weight="600" fill="#ececec" text-anchor="start" letter-spacing="-0.5">Answers math in under half a second</text><text x="60" y="318" font-size="104" font-weight="700" fill="#ececec" text-anchor="start" letter-spacing="-3.1">0.46s</text><rect x="64" y="350" width="56" height="6" rx="3" fill="#4d8aff"/><text x="64" y="398" font-size="20" font-weight="400" fill="#cfcfcf" text-anchor="start" >Superbot Fast, median response</text><text x="780" y="214" font-size="14" font-weight="400" fill="#9a9a9a" text-anchor="start" >Lower is better</text><line x1="780" y1="230" x2="780" y2="448" stroke="#262626"/><text x="766" y="257" font-size="17" font-weight="600" fill="#ececec" text-anchor="end" >Superbot Fast</text><path d="M780,236H832.2545454545455A4,4 0 0 1 836.2545454545455,240V262A4,4 0 0 1 832.2545454545455,266H780Z" fill="#4d8aff"><title>Superbot Fast: 0.46s</title></path><text x="846.2545454545455" y="257" font-size="17" font-weight="600" fill="#ececec" text-anchor="start" >0.46s</text><text x="766" y="301" font-size="17" font-weight="600" fill="#ececec" text-anchor="end" >Superbot</text><path d="M780,280H867.12A4,4 0 0 1 871.12,284V306A4,4 0 0 1 867.12,310H780Z" fill="#4d8aff"><title>Superbot: 0.74s</title></path><text x="881.12" y="301" font-size="17" font-weight="600" fill="#ececec" text-anchor="start" >0.74s</text><text x="766" y="345" font-size="17" font-weight="400" fill="#cfcfcf" text-anchor="end" >Sonnet 5.5 high (API)</text><path d="M780,324H908.1672727272727A4,4 0 0 1 912.1672727272727,328V350A4,4 0 0 1 908.1672727272727,354H780Z" fill="#5c5c5c"><title>Sonnet 5.5 high (API): 1.07s</title></path><text x="922.1672727272727" y="345" font-size="17" font-weight="400" fill="#cfcfcf" text-anchor="start" >1.07s</text><text x="766" y="389" font-size="17" font-weight="400" fill="#cfcfcf" text-anchor="end" >Opus 5.5 (API)</text><path d="M780,368H945.8763636363636A4,4 0 0 1 949.8763636363636,372V394A4,4 0 0 1 945.8763636363636,398H780Z" fill="#5c5c5c"><title>Opus 5.5 (API): 1.37s</title></path><text x="959.8763636363636" y="389" font-size="17" font-weight="400" fill="#cfcfcf" text-anchor="start" >1.37s</text><text x="766" y="433" font-size="17" font-weight="400" fill="#cfcfcf" text-anchor="end" >GPT-5.5 (API)</text><path d="M780,412H1028.341818181818A4,4 0 0 1 1032.341818181818,416V438A4,4 0 0 1 1028.341818181818,442H780Z" fill="#5c5c5c"><title>GPT-5.5 (API): 2.04s</title></path><text x="1042.341818181818" y="433" font-size="17" font-weight="400" fill="#cfcfcf" text-anchor="start" >2.04s</text><text x="64" y="568" font-size="14" font-weight="400" fill="#9a9a9a" text-anchor="start" >Median wall clock over 2 math prompts x 3 runs; every Superbot answer verified correct.</text><text x="64" y="590" font-size="14" font-weight="400" fill="#9a9a9a" text-anchor="start" >Latency run, 2026-10-02. Rivals are the bare model APIs, the only rivals in that run.</text></svg>
